<svg width="1440" height="810" viewBox="0 0 1440 810" fill="none" xmlns="http://www.w3.org/2000/svg">
<mask id="mask0" mask-type="alpha" maskUnits="userSpaceOnUse" x="0" y="0" width="1440" height="810">
<rect width="1440" height="810" fill="#FFFDF8"/>
</mask>
<g mask="url(#mask0)">
<g opacity="0.2">
<path fill-rule="evenodd" clip-rule="evenodd" d="M1281.93 113.684L1312 83.611L1287.23 58.845L1257.16 88.918L1227.09 58.845L1202.32 83.611L1232.4 113.684L1202.32 143.757L1227.09 168.523L1257.16 138.45L1287.23 168.523L1312 143.757L1281.93 113.684Z" fill="#E1D9D6"/>
<path fill-rule="evenodd" clip-rule="evenodd" d="M1198.78 158.238L1251 106.011L1207.99 63L1155.77 115.227L1103.54 63L1060.53 106.011L1112.75 158.238L1060.53 210.465L1103.54 253.475L1155.77 201.248L1207.99 253.475L1251 210.465L1198.78 158.238Z" fill="#F9AC00" fill-opacity="0.6"/>
</g>
<g opacity="0.5">
<path fill-rule="evenodd" clip-rule="evenodd" d="M1221.71 735.966L1129.9 644.161L1205.5 568.557L1297.31 660.362L1389.11 568.557L1464.72 644.161L1372.91 735.966L1464.72 827.771L1389.11 903.375L1297.31 811.57L1205.5 903.375L1129.9 827.771L1221.71 735.966Z" fill="#F3E9D3"/>
<path fill-rule="evenodd" clip-rule="evenodd" d="M901.829 726.351L746.443 570.965L874.408 443L1029.79 598.386L1185.18 443L1313.15 570.965L1157.76 726.351L1313.15 881.737L1185.18 1009.7L1029.79 854.316L874.408 1009.7L746.443 881.737L901.829 726.351Z" fill="#F9AC00" fill-opacity="0.5"/>
</g>
<g opacity="0.95">
<path fill-rule="evenodd" clip-rule="evenodd" d="M105.101 234.348L41 170.247L93.789 117.458L157.89 181.559L221.991 117.458L274.78 170.247L210.679 234.348L274.78 298.449L221.991 351.238L157.89 287.137L93.789 351.238L41 298.449L105.101 234.348Z" fill="#EAEAEA" fill-opacity="0.4"/>
<path fill-rule="evenodd" clip-rule="evenodd" d="M280.079 350L168.756 238.677L260.433 147L371.756 258.323L483.079 147L574.756 238.677L463.433 350L574.756 461.323L483.078 553L371.756 441.677L260.433 553L168.756 461.323L280.079 350Z" fill="#F9AC00" fill-opacity="0.19"/>
</g>
</g>
</svg>
