{
  "accessors": [
    {
      "bufferView": 2,
      "componentType": 5126,
      "count": 16273,
      "max": [
        0.60760498046875,
        0.73048001527786255,
        1
      ],
      "min": [
        -0.60760498046875,
        -0.73048001527786255,
        -1
      ],
      "type": "VEC3"
    },
    {
      "bufferView": 2,
      "byteOffset": 195276,
      "componentType": 5126,
      "count": 16273,
      "max": [
        0.99999713897705078,
        0.99987846612930298,
        0.99996674060821533
      ],
      "min": [
        -0.99994665384292603,
        -0.99994999170303345,
        -0.99981838464736938
      ],
      "type": "VEC3"
    },
    {
      "bufferView": 3,
      "componentType": 5126,
      "count": 16273,
      "max": [
        0.99999099969863892,
        0.99992102384567261,
        0.99949401617050171,
        1
      ],
      "min": [
        -0.99987399578094482,
        -0.99998801946640015,
        -0.99986600875854492,
        -1
      ],
      "type": "VEC4"
    },
    {
      "bufferView": 1,
      "componentType": 5126,
      "count": 16273,
      "max": [
        0.99747002124786377,
        0.98926001787185669
      ],
      "min": [
        0.0019499700283631682,
        0.0019499700283631682
      ],
      "type": "VEC2"
    },
    {
      "bufferView": 0,
      "componentType": 5125,
      "count": 89670,
      "max": [
        16272
      ],
      "min": [
        0
      ],
      "type": "SCALAR"
    },
    {
      "bufferView": 2,
      "byteOffset": 390552,
      "componentType": 5126,
      "count": 752,
      "max": [
        0.23489400744438171,
        -0.15869200229644775,
        0.86213397979736328
      ],
      "min": [
        -0.19198299944400787,
        -0.49074798822402954,
        0.52528297901153564
      ],
      "type": "VEC3"
    },
    {
      "bufferView": 2,
      "byteOffset": 399576,
      "componentType": 5126,
      "count": 752,
      "max": [
        0.99942654371261597,
        0.99871665239334106,
        0.973003089427948
      ],
      "min": [
        -0.99854302406311035,
        -0.99673753976821899,
        -0.99186033010482788
      ],
      "type": "VEC3"
    },
    {
      "bufferView": 3,
      "byteOffset": 260368,
      "componentType": 5126,
      "count": 752,
      "max": [
        0.99649298191070557,
        0.99120301008224487,
        0.99236899614334106,
        1
      ],
      "min": [
        -0.9953799843788147,
        -0.99985802173614502,
        -0.9996039867401123,
        -1
      ],
      "type": "VEC4"
    },
    {
      "bufferView": 1,
      "byteOffset": 130184,
      "componentType": 5126,
      "count": 752,
      "max": [
        0.99309998750686646,
        0.84307998418807983
      ],
      "min": [
        0.41571998596191406,
        0.070780001580715179
      ],
      "type": "VEC2"
    },
    {
      "bufferView": 0,
      "byteOffset": 358680,
      "componentType": 5125,
      "count": 3378,
      "max": [
        751
      ],
      "min": [
        0
      ],
      "type": "SCALAR"
    }
  ],
  "asset": {
    "extras": {
      "author": "jvitorsouzadesign (https://sketchfab.com/jvitorsouzadesign)",
      "license": "CC-BY-4.0 (http://creativecommons.org/licenses/by/4.0/)",
      "source": "https://sketchfab.com/models/eeed09437afb4e1ea8a6ff3b0e9964ad",
      "title": "Skull Salazar (Downloadable)"
    },
    "generator": "Sketchfab-3.19.6",
    "version": "2.0"
  },
  "bufferViews": [
    {
      "buffer": 0,
      "byteLength": 372192,
      "byteOffset": 0,
      "name": "floatBufferViews",
      "target": 34963
    },
    {
      "buffer": 0,
      "byteLength": 136200,
      "byteOffset": 372192,
      "byteStride": 8,
      "name": "floatBufferViews",
      "target": 34962
    },
    {
      "buffer": 0,
      "byteLength": 408600,
      "byteOffset": 508392,
      "byteStride": 12,
      "name": "floatBufferViews",
      "target": 34962
    },
    {
      "buffer": 0,
      "byteLength": 272400,
      "byteOffset": 916992,
      "byteStride": 16,
      "name": "floatBufferViews",
      "target": 34962
    }
  ],
  "buffers": [
    {
      "byteLength": 1189392,
      "uri": "scene.bin"
    }
  ],
  "images": [
    {
      "uri": "textures/Rosa_material_baseColor.jpeg"
    },
    {
      "uri": "textures/Rosa_material_normal.png"
    },
    {
      "uri": "textures/Rosa_material_metallicRoughness.png"
    },
    {
      "uri": "textures/defaultMat_material_metallicRoughness.png"
    },
    {
      "uri": "textures/defaultMat_material_normal.png"
    },
    {
      "uri": "textures/defaultMat_material_baseColor.jpeg"
    }
  ],
  "materials": [
    {
      "doubleSided": true,
      "name": "Rosa_material",
      "normalTexture": {
        "index": 1,
        "scale": 1,
        "texCoord": 0
      },
      "occlusionTexture": {
        "index": 2,
        "strength": 1,
        "texCoord": 0
      },
      "pbrMetallicRoughness": {
        "baseColorFactor": [
          1,
          1,
          1,
          1
        ],
        "baseColorTexture": {
          "index": 0,
          "texCoord": 0
        },
        "metallicFactor": 1,
        "metallicRoughnessTexture": {
          "index": 2,
          "texCoord": 0
        },
        "roughnessFactor": 0.84317835370000005
      }
    },
    {
      "doubleSided": true,
      "emissiveFactor": [
        0,
        0,
        0
      ],
      "name": "defaultMat_material",
      "normalTexture": {
        "index": 4,
        "scale": 1,
        "texCoord": 0
      },
      "occlusionTexture": {
        "index": 3,
        "strength": 1,
        "texCoord": 0
      },
      "pbrMetallicRoughness": {
        "baseColorFactor": [
          1,
          1,
          1,
          1
        ],
        "baseColorTexture": {
          "index": 5,
          "texCoord": 0
        },
        "metallicFactor": 1,
        "metallicRoughnessTexture": {
          "index": 3,
          "texCoord": 0
        },
        "roughnessFactor": 1
      }
    }
  ],
  "meshes": [
    {
      "name": "defaultMaterial",
      "primitives": [
        {
          "attributes": {
            "NORMAL": 1,
            "POSITION": 0,
            "TANGENT": 2,
            "TEXCOORD_0": 3
          },
          "indices": 4,
          "material": 0,
          "mode": 4
        }
      ]
    },
    {
      "name": "defaultMaterial",
      "primitives": [
        {
          "attributes": {
            "NORMAL": 6,
            "POSITION": 5,
            "TANGENT": 7,
            "TEXCOORD_0": 8
          },
          "indices": 9,
          "material": 1,
          "mode": 4
        }
      ]
    }
  ],
  "nodes": [
    {
      "children": [
        1
      ],
      "name": "RootNode (gltf orientation matrix)",
      "rotation": [
        -0.70710678118654746,
        -0,
        -0,
        0.70710678118654757
      ]
    },
    {
      "children": [
        2
      ],
      "matrix": [
        0.99981087446212769,
        0,
        -0.019447313621640205,
        0,
        0,
        1,
        0,
        0,
        0.019447313621640205,
        0,
        0.99981087446212769,
        0,
        7.0000001350933871e-09,
        0,
        4.9999998585903427e-10,
        1
      ],
      "name": "RootNode (model correction matrix)"
    },
    {
      "children": [
        3
      ],
      "matrix": [
        1,
        0,
        0,
        0,
        0,
        -4.3711390063094768e-08,
        0.999999999999999,
        0,
        0,
        -0.999999999999999,
        -4.3711390063094768e-08,
        0,
        0,
        0,
        0,
        1
      ],
      "name": "Collada visual scene group"
    },
    {
      "children": [
        4,
        5
      ],
      "name": "Group5732_001"
    },
    {
      "mesh": 0,
      "name": "defaultMaterial"
    },
    {
      "mesh": 1,
      "name": "defaultMaterial"
    }
  ],
  "samplers": [
    {
      "magFilter": 9729,
      "minFilter": 9987,
      "wrapS": 10497,
      "wrapT": 10497
    }
  ],
  "scene": 0,
  "scenes": [
    {
      "name": "OSG_Scene",
      "nodes": [
        0
      ]
    }
  ],
  "textures": [
    {
      "sampler": 0,
      "source": 0
    },
    {
      "sampler": 0,
      "source": 1
    },
    {
      "sampler": 0,
      "source": 2
    },
    {
      "sampler": 0,
      "source": 3
    },
    {
      "sampler": 0,
      "source": 4
    },
    {
      "sampler": 0,
      "source": 5
    }
  ]
}

